<svg width="378" height="48" viewBox="0 0 378 48" fill="none" xmlns="http://www.w3.org/2000/svg">
    <g clipPath="url(#clip0_3205_101)">
        <path
            d="M16.2178 36.3225L15.5554 37.9689L15.417 38.313L19.5369 38.1473L20.3321 36.1228L20.9979 34.4283L16.8881 34.6568L16.2178 36.3225Z"
            fill="url(#paint0_linear_3205_101)" />
        <path
            d="M18.9006 29.6531L18.1001 31.6432L22.2017 31.3633L22.997 29.3389L23.677 27.6082L19.585 27.9512L18.9006 29.6531Z"
            fill="url(#paint1_linear_3205_101)" />
        <path
            d="M58.062 0.549758C57.489 0.0205059 56.6016 -0.123937 55.3487 0.104858L41.9655 2.55032C40.8223 2.75933 39.7234 3.25238 38.6987 4.01267C37.5599 4.80356 36.8311 5.65342 36.4618 6.62123L27.868 29.1253C27.6894 29.5933 27.316 30.0438 26.7587 30.463C26.0724 30.9041 25.3715 31.1445 24.6535 31.1934L23.5572 31.2681L22.164 31.3632L18.062 31.6432L13.0831 31.9828L8.98112 32.2627L6.86952 32.4068L4.0022 32.6024L12.991 12.0392C13.2084 11.5413 13.6542 11.0661 14.3148 10.6268C14.9642 10.2439 15.5886 10.0046 16.1944 9.902L25.1346 8.38591C25.8355 8.26722 26.3835 8.31536 26.7639 8.52998L26.7871 8.54938C27.0388 8.85619 27.0597 9.27683 26.8497 9.79936L20.7432 24.9786L20.2889 26.108L19.5473 27.9511L23.6392 27.6081L24.3756 25.7337L31.559 7.44908C31.9335 6.49582 31.8421 5.80459 31.2792 5.33916C30.7171 4.87821 29.8349 4.76661 28.582 4.99578L15.1988 7.44124C14.0559 7.64988 12.9514 8.10896 11.916 8.80207C10.7663 9.52391 10.0248 10.289 9.63836 11.1512L0.336648 31.9085C-0.0613526 33.0932 -0.235175 34.7276 1.50939 35.2919C1.92939 35.4114 2.41878 35.4584 2.98165 35.4271L5.82808 35.2688L13.5382 34.8407L16.8501 34.6567L20.9599 34.4283L25.7292 34.1633C27.0012 34.0927 28.1448 33.6978 29.2262 32.9521C30.2751 32.2743 30.9722 31.4752 31.3087 30.5735L39.8442 7.69803C40.0527 7.13966 40.4899 6.61265 41.1438 6.13042C41.7876 5.71202 42.4094 5.45561 43.0152 5.35297L51.9555 3.83687C52.656 3.71818 53.2065 3.7835 53.5926 4.03245L53.6165 4.05447C53.875 4.40382 53.9041 4.87634 53.703 5.45785L40.8786 42.6067C40.7051 43.1091 40.3351 43.5797 39.7786 44.0048C39.0926 44.446 38.3884 44.6658 37.664 44.6752L19.3433 44.9036C18.7159 44.9114 18.2101 44.7233 17.8397 44.3456C17.5163 44.0119 17.4059 43.6402 17.5096 43.2382L17.4984 43.2386L18.0001 41.9617L18.2825 41.2436L19.4981 38.1495L15.3782 38.3152L14.0406 41.6404L13.9041 41.9796L13.8362 42.1487L13.8079 42.2193L13.5803 42.7847L13.5382 42.8892L13.4781 43.0381L13.3651 43.3188L13.0387 44.1302C12.8541 44.6248 12.4322 46.0752 13.3595 47.099C13.4554 47.2001 13.555 47.2972 13.6669 47.3811C13.7165 47.4196 13.7761 47.4539 13.831 47.4905C14.3558 47.8242 15.0246 48.0003 15.8497 48.0003H38.7953C40.0781 48.0003 41.227 47.6372 42.308 46.8866C43.3569 46.2088 44.0484 45.3772 44.3748 44.4105L58.3824 2.91908C58.7401 1.85945 58.6353 1.08349 58.062 0.549758Z"
            fill="url(#paint2_linear_3205_101)" />
    </g>
    <path
        d="M83.8933 36L79.0281 28.9331L74.8732 36H66.954L75.0863 23.1801L66.6699 10.9639H74.8732L79.5963 17.8532L83.6447 10.9639H91.564L83.5382 23.5707L92.0966 36H83.8933ZM110.501 15.2253L101.978 36H94.8402L103.434 16.0421H93.3132V10.076H110.501V15.2253ZM112.257 30.4246C114.553 28.6253 116.435 27.0746 117.903 25.7725C119.371 24.4704 120.602 23.1327 121.597 21.7596C122.591 20.3628 123.088 19.037 123.088 17.7822C123.088 17.0246 122.91 16.4327 122.555 16.0066C122.224 15.5804 121.727 15.3674 121.064 15.3674C120.377 15.3674 119.845 15.6633 119.466 16.2552C119.087 16.8234 118.909 17.6638 118.933 18.7766H112.186C112.257 16.6695 112.718 14.9294 113.571 13.5562C114.423 12.1594 115.536 11.1414 116.909 10.5022C118.282 9.8393 119.809 9.50785 121.49 9.50785C124.402 9.50785 126.568 10.2299 127.989 11.6741C129.409 13.1183 130.119 14.9886 130.119 17.285C130.119 19.7472 129.291 22.0555 127.634 24.2099C126 26.3643 123.952 28.2938 121.49 29.9984H130.368V35.6449H112.257V30.4246ZM131.943 16.5748V10.0405H142.88V36H135.6V16.5748H131.943Z"
        fill="url(#paint3_linear_3205_101)" />
    <path
        d="M184.07 11.4255V36H180.838V17.6757L172.671 36H170.398L162.194 17.6402V36H158.963V11.4255H162.443L171.534 31.7385L180.625 11.4255H184.07ZM188.343 26.1986C188.343 24.2099 188.746 22.4698 189.551 20.9783C190.355 19.4631 191.456 18.2912 192.853 17.4626C194.274 16.634 195.848 16.2197 197.576 16.2197C199.281 16.2197 200.761 16.5866 202.015 17.3205C203.27 18.0545 204.205 18.9778 204.821 20.0905V16.5393H208.088V36H204.821V32.3777C204.182 33.5141 203.223 34.4611 201.944 35.2187C200.69 35.9527 199.222 36.3196 197.541 36.3196C195.813 36.3196 194.25 35.8935 192.853 35.0412C191.456 34.1889 190.355 32.9933 189.551 31.4544C188.746 29.9156 188.343 28.1636 188.343 26.1986ZM204.821 26.2341C204.821 24.7663 204.525 23.4878 203.933 22.3988C203.341 21.3098 202.536 20.4811 201.518 19.9129C200.524 19.3211 199.423 19.0251 198.216 19.0251C197.008 19.0251 195.907 19.3092 194.913 19.8774C193.919 20.4456 193.125 21.2742 192.534 22.3633C191.942 23.4523 191.646 24.7308 191.646 26.1986C191.646 27.6901 191.942 28.9922 192.534 30.105C193.125 31.194 193.919 32.0345 194.913 32.6263C195.907 33.1945 197.008 33.4786 198.216 33.4786C199.423 33.4786 200.524 33.1945 201.518 32.6263C202.536 32.0345 203.341 31.194 203.933 30.105C204.525 28.9922 204.821 27.702 204.821 26.2341ZM216.781 19.6999C217.349 18.5872 218.154 17.723 219.196 17.1075C220.261 16.4919 221.551 16.1842 223.066 16.1842V19.5223H222.214C218.592 19.5223 216.781 21.4873 216.781 25.4173V36H213.549V16.5393H216.781V19.6999ZM237.664 36L230.028 27.406V36H226.797V9.72092H230.028V25.1688L237.521 16.5393H242.032L232.869 26.2341L242.067 36H237.664ZM262.829 25.5239C262.829 26.1394 262.794 26.7905 262.723 27.4771H247.168C247.287 29.3947 247.938 30.8981 249.122 31.9871C250.329 33.0525 251.785 33.5852 253.49 33.5852C254.886 33.5852 256.046 33.2656 256.97 32.6263C257.917 31.9634 258.58 31.0875 258.958 29.9984H262.439C261.918 31.8687 260.876 33.3958 259.314 34.5795C257.751 35.7396 255.81 36.3196 253.49 36.3196C251.643 36.3196 249.986 35.9053 248.518 35.0767C247.074 34.2481 245.937 33.0762 245.109 31.561C244.28 30.0221 243.866 28.2465 243.866 26.2341C243.866 24.2218 244.268 22.458 245.073 20.9428C245.878 19.4276 247.003 18.2675 248.447 17.4626C249.915 16.634 251.596 16.2197 253.49 16.2197C255.336 16.2197 256.97 16.6221 258.39 17.4271C259.811 18.232 260.9 19.3447 261.657 20.7652C262.439 22.1621 262.829 23.7483 262.829 25.5239ZM259.491 24.8491C259.491 23.6181 259.219 22.5645 258.674 21.6886C258.13 20.7889 257.384 20.1142 256.437 19.6644C255.514 19.1909 254.484 18.9541 253.347 18.9541C251.714 18.9541 250.317 19.475 249.157 20.5167C248.021 21.5583 247.37 23.0025 247.204 24.8491H259.491ZM271.037 19.2027V30.6732C271.037 31.6202 271.238 32.2949 271.64 32.6974C272.043 33.0762 272.741 33.2656 273.736 33.2656H276.115V36H273.203C271.404 36 270.054 35.5857 269.155 34.7571C268.255 33.9285 267.805 32.5671 267.805 30.6732V19.2027H265.284V16.5393H267.805V11.6386H271.037V16.5393H276.115V19.2027H271.037ZM283.262 20.126C283.901 19.0133 284.848 18.09 286.103 17.3561C287.382 16.5985 288.861 16.2197 290.542 16.2197C292.27 16.2197 293.833 16.634 295.23 17.4626C296.65 18.2912 297.763 19.4631 298.568 20.9783C299.373 22.4698 299.775 24.2099 299.775 26.1986C299.775 28.1636 299.373 29.9156 298.568 31.4544C297.763 32.9933 296.65 34.1889 295.23 35.0412C293.833 35.8935 292.27 36.3196 290.542 36.3196C288.885 36.3196 287.417 35.9527 286.139 35.2187C284.884 34.4611 283.925 33.526 283.262 32.4133V45.2332H280.031V16.5393H283.262V20.126ZM296.473 26.1986C296.473 24.7308 296.177 23.4523 295.585 22.3633C294.993 21.2742 294.188 20.4456 293.17 19.8774C292.176 19.3092 291.075 19.0251 289.867 19.0251C288.684 19.0251 287.583 19.3211 286.565 19.9129C285.57 20.4811 284.765 21.3216 284.15 22.4343C283.558 23.5234 283.262 24.79 283.262 26.2341C283.262 27.702 283.558 28.9922 284.15 30.105C284.765 31.194 285.57 32.0345 286.565 32.6263C287.583 33.1945 288.684 33.4786 289.867 33.4786C291.075 33.4786 292.176 33.1945 293.17 32.6263C294.188 32.0345 294.993 31.194 295.585 30.105C296.177 28.9922 296.473 27.6901 296.473 26.1986ZM307.261 9.72092V36H304.029V9.72092H307.261ZM311.561 26.1986C311.561 24.2099 311.963 22.4698 312.768 20.9783C313.573 19.4631 314.674 18.2912 316.071 17.4626C317.492 16.634 319.066 16.2197 320.794 16.2197C322.499 16.2197 323.978 16.5866 325.233 17.3205C326.488 18.0545 327.423 18.9778 328.039 20.0905V16.5393H331.306V36H328.039V32.3777C327.399 33.5141 326.441 34.4611 325.162 35.2187C323.907 35.9527 322.44 36.3196 320.759 36.3196C319.03 36.3196 317.468 35.8935 316.071 35.0412C314.674 34.1889 313.573 32.9933 312.768 31.4544C311.963 29.9156 311.561 28.1636 311.561 26.1986ZM328.039 26.2341C328.039 24.7663 327.743 23.4878 327.151 22.3988C326.559 21.3098 325.754 20.4811 324.736 19.9129C323.742 19.3211 322.641 19.0251 321.433 19.0251C320.226 19.0251 319.125 19.3092 318.131 19.8774C317.136 20.4456 316.343 21.2742 315.751 22.3633C315.16 23.4523 314.864 24.7308 314.864 26.1986C314.864 27.6901 315.16 28.9922 315.751 30.105C316.343 31.194 317.136 32.0345 318.131 32.6263C319.125 33.1945 320.226 33.4786 321.433 33.4786C322.641 33.4786 323.742 33.1945 324.736 32.6263C325.754 32.0345 326.559 31.194 327.151 30.105C327.743 28.9922 328.039 27.702 328.039 26.2341ZM335.559 26.2341C335.559 24.2218 335.962 22.4698 336.767 20.9783C337.572 19.4631 338.685 18.2912 340.105 17.4626C341.549 16.634 343.195 16.2197 345.041 16.2197C347.432 16.2197 349.397 16.7997 350.936 17.9598C352.499 19.1198 353.529 20.7297 354.026 22.7894H350.546C350.214 21.6057 349.563 20.6705 348.592 19.984C347.645 19.2974 346.462 18.9541 345.041 18.9541C343.195 18.9541 341.703 19.5933 340.567 20.8718C339.43 22.1265 338.862 23.914 338.862 26.2341C338.862 28.5779 339.43 30.3891 340.567 31.6675C341.703 32.9459 343.195 33.5852 345.041 33.5852C346.462 33.5852 347.645 33.2537 348.592 32.5908C349.539 31.9279 350.191 30.9809 350.546 29.7498H354.026C353.505 31.7385 352.463 33.3366 350.901 34.544C349.338 35.7277 347.385 36.3196 345.041 36.3196C343.195 36.3196 341.549 35.9053 340.105 35.0767C338.685 34.2481 337.572 33.0762 336.767 31.561C335.962 30.0458 335.559 28.2702 335.559 26.2341ZM376.094 25.5239C376.094 26.1394 376.058 26.7905 375.987 27.4771H360.433C360.551 29.3947 361.202 30.8981 362.386 31.9871C363.594 33.0525 365.05 33.5852 366.754 33.5852C368.151 33.5852 369.311 33.2656 370.234 32.6263C371.181 31.9634 371.844 31.0875 372.223 29.9984H375.703C375.182 31.8687 374.141 33.3958 372.578 34.5795C371.016 35.7396 369.074 36.3196 366.754 36.3196C364.908 36.3196 363.25 35.9053 361.782 35.0767C360.338 34.2481 359.202 33.0762 358.373 31.561C357.545 30.0221 357.13 28.2465 357.13 26.2341C357.13 24.2218 357.533 22.458 358.338 20.9428C359.143 19.4276 360.267 18.2675 361.711 17.4626C363.179 16.634 364.86 16.2197 366.754 16.2197C368.601 16.2197 370.234 16.6221 371.655 17.4271C373.075 18.232 374.164 19.3447 374.922 20.7652C375.703 22.1621 376.094 23.7483 376.094 25.5239ZM372.756 24.8491C372.756 23.6181 372.484 22.5645 371.939 21.6886C371.394 20.7889 370.649 20.1142 369.702 19.6644C368.778 19.1909 367.749 18.9541 366.612 18.9541C364.979 18.9541 363.582 19.475 362.422 20.5167C361.285 21.5583 360.634 23.0025 360.469 24.8491H372.756Z"
        fill="#99A3FF" />
    <defs>
        <linearGradient id="paint0_linear_3205_101" x1="19.6633" y1="30.7827" x2="17.9481"
            y2="37.7139" gradientUnits="userSpaceOnUse">
            <stop stop-color="#2F43F2" />
            <stop offset="1" stop-color="#668CFF" />
        </linearGradient>
        <linearGradient id="paint1_linear_3205_101" x1="19.8119" y1="33.615" x2="20.7887"
            y2="29.0863" gradientUnits="userSpaceOnUse">
            <stop stop-color="#2F43F2" />
            <stop offset="1" stop-color="#668CFF" />
        </linearGradient>
        <linearGradient id="paint2_linear_3205_101" x1="-3.14567" y1="34.8963" x2="53.4326"
            y2="-5.96043" gradientUnits="userSpaceOnUse">
            <stop stop-color="#5D96FF" />
            <stop offset="1" stop-color="#8C66FF" />
        </linearGradient>
        <linearGradient id="paint3_linear_3205_101" x1="59.2372" y1="34.8943" x2="70.8826"
            y2="-3.37502" gradientUnits="userSpaceOnUse">
            <stop stop-color="#5D96FF" />
            <stop offset="1" stop-color="#8C66FF" />
        </linearGradient>
        <clipPath id="clip0_3205_101">
            <rect width="58.5169" height="48" fill="white" transform="translate(0.0727539)" />
        </clipPath>
    </defs>
</svg>
    