<svg width="243" height="98" viewBox="0 0 243 98" fill="none" xmlns="http://www.w3.org/2000/svg">
    <path d="M36.3855 98C24.4497 91.1196 12.8419 84.4285 0.962553 77.5808C3.73173 76.6184 4.16951 74.7132 4.15978 72.3322C4.09606 56.7296 4.11017 41.1269 4.14811 25.5242C4.15346 23.2716 3.81734 21.3479 0.842407 20.4766C6.26889 17.3497 11.2824 14.4613 16.7522 11.3096C16.7522 13.1632 16.7522 14.4676 16.7522 15.772C16.7653 34.4416 16.7653 53.1361 16.7653 71.7927C16.7449 74.6408 17.4949 76.1241 20.0516 77.5521C22.1169 78.7061 22.4267 78.8127 24.0066 79.6986C24.0066 78.4176 24.0154 77.6372 24.0066 76.7313C24.0066 54.4371 24.0504 32.4586 24.0066 9.74691C24.0013 7.85921 24.4313 6.70762 26.1683 5.80902C29.5362 4.06728 32.7738 2.07353 36.3855 -1.52588e-05V98Z" fill="#8358FF"/>
    <path d="M44.2032 98C56.1395 91.1197 67.7469 84.4286 79.6262 77.5808C76.857 76.6185 76.4192 74.7133 76.4289 72.3322C76.4927 56.7296 76.4786 41.1269 76.4406 25.5242C76.4353 23.2717 76.7714 21.348 79.7463 20.4766C74.3198 17.3498 69.3063 14.4613 63.8365 11.3096C63.8365 13.1633 63.8365 14.4676 63.8365 15.772C63.8234 34.4416 63.8234 53.1361 63.8234 71.7927C63.8438 74.6408 63.0938 76.1242 60.5372 77.5521C58.4718 78.7061 58.162 78.8127 56.5821 79.6986C56.5821 78.4176 56.5734 77.6372 56.5821 76.7313C56.5821 54.4371 56.5383 32.4586 56.5821 9.74692C56.5875 7.85923 56.1575 6.70764 54.4205 5.80904C51.0525 4.0673 47.8149 2.07354 44.2032 0V98Z" fill="url(#paint0_linear_20_72)"/>
    <path d="M50.3948 6.90538L51.7845 9.72184L54.8917 10.1733L52.6435 12.3656L53.1742 15.4608L50.3948 13.9993L47.6159 15.4608L48.1465 12.3656L45.8983 10.1733L49.0056 9.72184L50.3948 6.90538Z" fill="white"/>
    <path d="M123.37 52.8326C123.37 55.3472 123.159 57.3831 122.737 58.9405C122.169 60.9359 121.154 62.6718 119.694 64.1481C117.081 66.8086 113.64 68.1389 109.372 68.1389C107.295 68.1389 105.38 67.8388 103.627 67.2385C101.647 66.5571 100.024 65.5432 98.7582 64.1967C97.2002 62.5582 96.1615 60.8062 95.6422 58.9405C95.415 58.0969 95.2527 57.1479 95.1553 56.0934C95.0904 55.2498 95.0579 54.1629 95.0579 52.8326V30.5424H104.479V52.8326C104.479 53.806 104.528 54.6415 104.625 55.3391C104.755 56.2313 104.974 56.9857 105.282 57.6021C106.029 59.1109 107.36 59.8652 109.275 59.8652C111.255 59.8652 112.585 59.1271 113.267 57.6508C113.543 57.0506 113.738 56.3043 113.851 55.4121C113.916 54.7631 113.949 53.9033 113.949 52.8326V30.5424H123.37V52.8326Z" fill="#8358FF"/>
    <path d="M127.668 67.4332V60.1086C128.885 59.3137 129.899 58.6404 130.711 58.0888C131.782 57.3588 132.747 56.6612 133.608 55.9961C135.652 54.4225 137.429 52.8002 138.939 51.1292C139.555 50.4641 140.123 49.799 140.643 49.1338C141.276 48.3227 141.828 47.5359 142.298 46.7734C143.45 44.8753 144.027 43.1881 144.027 41.7119C144.027 39.3271 142.866 38.1347 140.545 38.1347C139.02 38.1347 137.908 38.7593 137.21 40.0085C136.691 40.9332 136.391 42.2472 136.31 43.9506H127.327C127.376 42.1661 127.538 40.6979 127.814 39.5461C128.138 38.0861 128.706 36.7315 129.518 35.4823C130.719 33.6329 132.366 32.2134 134.46 31.2238C136.407 30.3153 138.549 29.8611 140.886 29.8611C143.418 29.8611 145.682 30.3802 147.678 31.4185C149.869 32.5541 151.476 34.1926 152.498 36.334C153.131 37.7616 153.448 39.173 153.448 40.5682C153.448 42.4662 153.066 44.3481 152.303 46.2137C151.638 47.8684 150.664 49.5394 149.382 51.2266C148.327 52.6217 147.013 54.0899 145.439 55.6311C144.806 56.2475 144.092 56.9127 143.296 57.6265C142.744 58.1456 142.039 58.7702 141.178 59.5002H153.691V67.4332H127.668Z" fill="#8358FF"/>
    <path d="M189.581 66.7609L167.696 34.3153H167.599V66.7609H163.899V29.8611H168.889L189.483 60.4811H189.581V29.8611H193.257V66.7609H189.581Z" fill="#00109E"/>
    <path d="M203.761 33.22V46.5828H218.148V49.9174H203.761V66.7609H200.061V29.8611H218.708V33.22H203.761Z" fill="#00109E"/>
    <path d="M233.667 33.22V66.7609H229.967V33.22H221.496V29.8611H242.09V33.22H233.667Z" fill="#00109E"/>
    <defs>
        <linearGradient id="paint0_linear_20_72" x1="44.2032" y1="48.9998" x2="79.7463" y2="48.9998" gradientUnits="userSpaceOnUse">
            <stop stop-color="#8358FF"/>
            <stop offset="1" stop-color="#00109E"/>
        </linearGradient>
    </defs>
</svg>
