<svg width="40" height="40" viewBox="0 0 40 40" fill="none" xmlns="http://www.w3.org/2000/svg">
<path d="M40 20C40 8.9543 31.0457 -1.35705e-06 20 -8.74228e-07C8.9543 -3.91405e-07 -1.35705e-06 8.9543 -8.74228e-07 20C-3.91405e-07 31.0457 8.9543 40 20 40C31.0457 40 40 31.0457 40 20Z" fill="#627EEA"/>
<path d="M20.625 5.00586V16.0922L29.9949 20.2802L20.625 5.00586Z" fill="white"/>
<path d="M20.6253 5.00586L11.25 20.2802L20.6253 16.0922V5.00586Z" fill="white"/>
<path d="M20.625 27.4661V35.0001L30.0003 22.0234L20.625 27.4661Z" fill="white"/>
<path d="M20.6253 35.0005V27.4666L11.25 22.0293L20.6253 35.0059V35.0005Z" fill="white"/>
<path d="M20.625 25.717L29.9949 20.2743L20.625 16.0918V25.717Z" fill="white"/>
<path d="M11.2539 20.2802L20.6292 25.7229V16.0977L11.2539 20.2802Z" fill="white"/>
</svg>
