<svg width="40" height="40" viewBox="0 0 40 40" fill="none" xmlns="http://www.w3.org/2000/svg">
<rect width="40" height="40" rx="20" fill="url(#paint0_linear_728_94818)"/>
<path d="M18.8844 34.0001C15.4773 32.0343 12.1637 30.1226 8.77258 28.1661C9.56307 27.8911 9.68804 27.3467 9.68526 26.6665C9.66707 22.2085 9.6711 17.7506 9.68193 13.2927C9.68346 12.6491 9.58751 12.0994 8.73828 11.8505C10.2873 10.9571 11.7185 10.1318 13.2799 9.23134C13.2799 9.76095 13.2799 10.1336 13.2799 10.5063C13.2836 15.8405 13.2836 21.1818 13.2836 26.5123C13.2778 27.326 13.4919 27.7499 14.2217 28.1579C14.8113 28.4876 14.8998 28.518 15.3508 28.7711C15.3508 28.4051 15.3533 28.1822 15.3508 27.9233C15.3508 21.5535 15.3633 15.2739 15.3508 8.78485C15.3492 8.2455 15.472 7.91648 15.9678 7.65973C16.9292 7.16209 17.8534 6.59244 18.8844 6V34.0001Z" fill="white"/>
<path fill-rule="evenodd" clip-rule="evenodd" d="M31.229 28.1661L21.1172 34.0001V6C21.4242 6.17644 21.7218 6.35085 22.0137 6.52194C22.702 6.92535 23.3587 7.31029 24.0338 7.65973C24.5296 7.91648 24.6524 8.2455 24.6509 8.78485C24.6425 13.112 24.6453 17.346 24.6481 21.5757C24.6495 23.689 24.6509 25.8012 24.6509 27.9233C24.6493 28.0881 24.6497 28.2383 24.6502 28.4202C24.6505 28.524 24.6509 28.6381 24.6509 28.7711C24.8649 28.651 24.9972 28.5811 25.1402 28.5055C25.2986 28.4217 25.4701 28.3311 25.7799 28.1579C26.5097 27.7499 26.7238 27.326 26.718 26.5123V26.5062C26.718 21.1778 26.718 15.8385 26.7217 10.5063V9.23134L31.2633 11.8505C30.4141 12.0994 30.3182 12.6491 30.3197 13.2927C30.3305 17.7506 30.3345 22.2085 30.3164 26.6665C30.3136 27.3467 30.4386 27.8911 31.229 28.1661ZM23.2786 8.77793L22.8819 7.97323L22.4854 8.77793L21.5984 8.90693L22.2402 9.53329L22.0887 10.4176L22.8819 10.0001L23.6753 10.4176L23.5239 9.53329L24.1656 8.90693L23.2786 8.77793Z" fill="white"/>
<defs>
<linearGradient id="paint0_linear_728_94818" x1="20" y1="4.72656" x2="20" y2="42.5781" gradientUnits="userSpaceOnUse">
<stop stop-color="#31C694"/>
<stop offset="1" stop-color="#14523D"/>
</linearGradient>
</defs>
</svg>
